<svg id="Layer_1" enable-background="new 0 0 512 512" height="512" viewBox="0 0 512 512" width="512" xmlns="http://www.w3.org/2000/svg"><g><g><path d="m318.15 497.021h-124.3l10.8-33.999 12.71-39.988h77.28z" fill="#c8d9e2"/><path d="m318.15 497.021h-124.3l10.8-33.999h52.92c13.7 0 23.57-13.139 19.74-26.299l-3.98-13.689h21.31z" fill="#a1adb4"/><g fill="#3a4b56"><path d="m164.031 30.437c-4.142 0-7.5 3.358-7.5 7.5v45.476c0 4.142 3.358 7.5 7.5 7.5s7.5-3.358 7.5-7.5v-45.476c0-4.142-3.358-7.5-7.5-7.5z"/><path d="m347.529 30.437c-4.142 0-7.5 3.358-7.5 7.5v45.476c0 4.142 3.358 7.5 7.5 7.5s7.5-3.358 7.5-7.5v-45.476c0-4.142-3.358-7.5-7.5-7.5z"/></g><g fill="#3a4b56"><path d="m72.031 415.537c-4.142 0-7.5 3.358-7.5 7.5v51.496c0 4.142 3.358 7.5 7.5 7.5s7.5-3.358 7.5-7.5v-51.496c0-4.142-3.358-7.5-7.5-7.5z"/><path d="m439.969 415.537c-4.142 0-7.5 3.358-7.5 7.5v51.496c0 4.142 3.358 7.5 7.5 7.5s7.5-3.358 7.5-7.5v-51.496c0-4.142-3.358-7.5-7.5-7.5z"/></g><g fill="#f76ba0"><path d="m164.031.51c-12.407 0-22.5 10.077-22.5 22.463s10.093 22.463 22.5 22.463 22.5-10.077 22.5-22.463-10.093-22.463-22.5-22.463z"/><path d="m347.529.51c-12.407 0-22.5 10.077-22.5 22.463s10.093 22.463 22.5 22.463 22.5-10.077 22.5-22.463-10.093-22.463-22.5-22.463z"/></g><g fill="#f76ba0"><path d="m439.969 467.033c-12.407 0-22.5 10.077-22.5 22.463s10.093 22.463 22.5 22.463 22.5-10.077 22.5-22.463-10.094-22.463-22.5-22.463z"/><path d="m72.031 467.033c-12.407 0-22.5 10.077-22.5 22.463s10.093 22.463 22.5 22.463 22.5-10.077 22.5-22.463-10.093-22.463-22.5-22.463z"/></g><path d="m512 97.43v281.63l-21.53 2.52-234.47 27.47-256-29.99v-281.63c0-11.86 9.66-21.51 21.53-21.51h468.94c11.87 0 21.53 9.65 21.53 21.51z" fill="#83d4ee"/><path d="m512 97.43v281.63l-21.53 2.52-234.47 27.47-256-29.99v-24.88h470.34c11.12 0 20.13-9.01 20.13-20.13v-234.95c0-12.8-10.38-23.18-23.18-23.18h23.18c11.87 0 21.53 9.65 21.53 21.51z" fill="#29c1e4"/><path d="m512 379.055v29.969c0 11.86-9.66 21.509-21.53 21.509h-468.94c-11.87 0-21.53-9.65-21.53-21.509v-29.969z" fill="#3a4b56"/><path d="m512 379.055v29.969c0 11.86-9.66 21.509-21.53 21.509h-468.94c-11.87 0-21.53-9.65-21.53-21.509v-4.23h469.55c11.55 0 20.92-9.37 20.92-20.919v-4.82z" fill="#22323a"/><path d="m351 497.021c0 8.27-6.71 14.979-14.98 14.979h-160.04c-4.14 0-7.88-1.68-10.59-4.39s-4.39-6.46-4.39-10.59c0-8.28 6.71-14.989 14.98-14.989h160.04c4.14 0 7.88 1.68 10.59 4.39s4.39 6.46 4.39 10.6z" fill="#3a4b56"/><path d="m351 497.021c0 8.27-6.71 14.979-14.98 14.979h-160.04c-4.14 0-7.88-1.68-10.59-4.39s-4.39-6.46-4.39-10.59h160.03c8.28 0 14.99-6.71 14.99-14.989 4.14 0 7.88 1.68 10.59 4.39s4.39 6.46 4.39 10.6z" fill="#22323a"/><g fill="#3a4b56"><path d="m59.25 3.186c-2.666-3.172-7.396-3.582-10.567-.918s-3.583 7.395-.918 10.566l16.767 19.957v77.509c0 4.142 3.358 7.5 7.5 7.5s7.5-3.358 7.5-7.5v-80.241c0-1.765-.623-3.473-1.757-4.824z"/><path d="m463.317 1.757c-3.172-2.663-7.902-2.253-10.567.918l-18.524 22.049c-1.135 1.351-1.757 3.059-1.757 4.824v80.241c0 4.142 3.358 7.5 7.5 7.5s7.5-3.358 7.5-7.5v-77.508l16.767-19.957c2.664-3.171 2.253-7.902-.919-10.567z"/><path d="m256 .51c-4.142 0-7.5 3.358-7.5 7.5v101.78c0 4.142 3.358 7.5 7.5 7.5s7.5-3.358 7.5-7.5v-101.78c0-4.142-3.358-7.5-7.5-7.5z"/></g><g fill="#3eafa9"><path d="m72.031 102.8c-12.407 0-22.5 10.077-22.5 22.463s10.093 22.463 22.5 22.463 22.5-10.077 22.5-22.463-10.093-22.463-22.5-22.463z"/><path d="m256 102.29c-12.407 0-22.5 10.077-22.5 22.463s10.093 22.463 22.5 22.463 22.5-10.077 22.5-22.463-10.093-22.463-22.5-22.463z"/><path d="m439.969 102.29c-12.407 0-22.5 10.077-22.5 22.463s10.093 22.463 22.5 22.463 22.5-10.077 22.5-22.463-10.094-22.463-22.5-22.463z"/></g></g><g fill="#fff"><path d="m256 303.32c4.142 0 7.5-3.358 7.5-7.5v-102.687c0-4.142-3.358-7.5-7.5-7.5h-44.009c-4.142 0-7.5 3.358-7.5 7.5v102.687c0 4.142 3.358 7.5 7.5 7.5s7.5-3.358 7.5-7.5v-43.844h29.009v43.844c0 4.142 3.358 7.5 7.5 7.5zm-36.509-66.343v-36.344h29.009v36.344z"/><path d="m292.509 193.133v102.687c0 4.142 3.358 7.5 7.5 7.5s7.5-3.358 7.5-7.5v-102.687c0-4.142-3.358-7.5-7.5-7.5s-7.5 3.358-7.5 7.5z"/></g></g></svg>